<svg xmlns="http://www.w3.org/2000/svg" xmlns:xlink="http://www.w3.org/1999/xlink" viewBox="0,0,256,256" width="48px" height="48px"><g fill="#212125" fill-rule="nonzero" stroke="none" stroke-width="1" stroke-linecap="butt" stroke-linejoin="miter" stroke-miterlimit="10" stroke-dasharray="" stroke-dashoffset="0" font-family="none" font-weight="none" font-size="none" text-anchor="none" style="mix-blend-mode: normal"><path d="M0,256v-256h256v256z" id="bgRectangle"></path></g><g fill="none" fill-rule="nonzero" stroke="none" stroke-width="1" stroke-linecap="butt" stroke-linejoin="miter" stroke-miterlimit="10" stroke-dasharray="" stroke-dashoffset="0" font-family="none" font-weight="none" font-size="none" text-anchor="none" style="mix-blend-mode: normal"><g transform="scale(5.33333,5.33333)"><path d="M9,42h23l10,-10v-23c0,-1.7 -1.3,-3 -3,-3h-30c-1.7,0 -3,1.3 -3,3v30c0,1.7 1.3,3 3,3z" fill="#ffc107"></path><path d="M32,42v-10h10z" fill="#ffecb3"></path><path d="M28,36h-8v-7.9c-3.1,-1.5 -5,-4.6 -5,-8.1c0,-5 4,-9 9,-9c5,0 9,4 9,9c0,3.5 -1.9,6.5 -5,8.1zM22,34h4v-7.3l0.6,-0.3c2.7,-1.1 4.4,-3.6 4.4,-6.5c0,-3.9 -3.1,-7 -7,-7c-3.9,0 -7,3.1 -7,7c0,2.9 1.7,5.4 4.4,6.5l0.6,0.3z" fill="#ffffff"></path><path d="M22,35h4v3h-4zM21,30h6v2h-6z" fill="#ffffff"></path></g></g></svg>